<svg width="900" height="700" viewBox="0 0 900 700" fill="none" xmlns="http://www.w3.org/2000/svg">
  <defs>
    <linearGradient id="tbg2" x1="0" y1="0" x2="900" y2="700" gradientUnits="userSpaceOnUse">
      <stop offset="0" stop-color="#FBFBFB"/>
      <stop offset="1" stop-color="#F0F0F0"/>
    </linearGradient>
    <filter id="soft2" x="-60" y="-60" width="1020" height="820" filterUnits="userSpaceOnUse">
      <feGaussianBlur stdDeviation="18"/>
    </filter>
  </defs>

  <rect width="900" height="700" rx="32" fill="url(#tbg2)"/>

  <g filter="url(#soft2)" opacity="0.60">
    <circle cx="190" cy="520" r="160" fill="#000000" fill-opacity="0.03"/>
    <circle cx="520" cy="260" r="170" fill="#000000" fill-opacity="0.04"/>
    <circle cx="740" cy="420" r="140" fill="#000000" fill-opacity="0.03"/>
  </g>

  <!-- "workspace" block -->
  <g opacity="0.75">
    <rect x="120" y="180" width="660" height="360" rx="28" fill="#000000" fill-opacity="0.035"/>
    <rect x="140" y="200" width="620" height="320" rx="22" fill="#FFFFFF" fill-opacity="0.9"/>
  </g>

  <!-- tiny UI lines -->
  <g stroke="#111111" stroke-opacity="0.14" stroke-width="6" stroke-linecap="round">
    <path d="M190 260H470"/>
    <path d="M190 310H610"/>
    <path d="M190 360H540"/>
    <path d="M190 410H580"/>
  </g>

  <!-- silhouettes -->
  <g opacity="0.55" fill="#111111">
    <circle cx="760" cy="560" r="42" fill-opacity="0.10"/>
    <rect x="712" y="605" width="96" height="78" rx="40" fill-opacity="0.08"/>

    <circle cx="640" cy="590" r="34" fill-opacity="0.10"/>
    <rect x="602" y="628" width="78" height="58" rx="34" fill-opacity="0.08"/>
  </g>

  <text x="56" y="92" font-family="ui-monospace, SFMono-Regular, Menlo, Monaco, Consolas, 'Liberation Mono', 'Courier New', monospace" font-size="20" fill="#000000" opacity="0.35">
    placeholder / workspace
  </text>
</svg>